HIERARCHY
ROOT Hips
{
	OFFSET 0.000000 0.000000 0.000000
	CHANNELS 6 Xposition Yposition Zposition Zrotation Yrotation Xrotation 
	JOINT LHipJoint
	{
		OFFSET 0.000000 0.000000 0.000000
		CHANNELS 3 Zrotation Yrotation Xrotation
		JOINT LeftUpLeg
		{
			OFFSET 1.363060 -1.794630 0.839290
			CHANNELS 3 Zrotation Yrotation Xrotation
			JOINT LeftLeg
			{
				OFFSET 2.448110 -6.726130 0.000000
				CHANNELS 3 Zrotation Yrotation Xrotation
				JOINT LeftFoot
				{
					OFFSET 2.562200 -7.039590 0.000000
					CHANNELS 3 Zrotation Yrotation Xrotation
					JOINT LeftToeBase
					{
						OFFSET 0.157640 -0.433110 2.322550
						CHANNELS 3 Zrotation Yrotation Xrotation
						End Site
						{
							OFFSET 0.000000 0.000000 0.000000
						}
					}
				}
			}
		}
	}
	JOINT RHipJoint
	{
		OFFSET 0.000000 0.000000 0.000000
		CHANNELS 3 Zrotation Yrotation Xrotation
		JOINT RightUpLeg
		{
			OFFSET -1.305520 -1.794630 0.839290
			CHANNELS 3 Zrotation Yrotation Xrotation
			JOINT RightLeg
			{
				OFFSET -2.542530 -6.985550 0.000000
				CHANNELS 3 Zrotation Yrotation Xrotation
				JOINT RightFoot
				{
					OFFSET -2.568260 -7.056230 0.000000
					CHANNELS 3 Zrotation Yrotation Xrotation
					JOINT RightToeBase
					{
						OFFSET -0.164730 -0.452590 2.363150
						CHANNELS 3 Zrotation Yrotation Xrotation
						End Site
						{
							OFFSET 0.000000 0.000000 0.000000
						}
					}
				}
			}
		}
	}
}
MOTION
Frames: 19
Frame Time: 0.008333
-7.942717 17.030247 0.313441 -175.976672 85.038897 -171.619105 -11.646859 5.752917 1.534145 4.278440 8.925240 10.440958 0.573384 1.690227 22.863361 1.980427 5.261470 32.070378 2.298400 -0.000000 -63.441100 9.379698 -0.525601 1.741825 6.601292 -9.294629 -26.745118 2.103865 0.137363 13.590867 -2.229355 -10.604613 -3.611322 -1.640000 0.000000 -35.529000
-7.686857 17.016872 0.333691 -173.191435 85.211649 -169.101487 -11.768466 5.758109 1.620261 4.780658 9.142615 9.700874 0.639779 1.703415 24.958615 2.098259 5.524699 32.777079 2.448200 0.000000 -58.622800 9.351815 -0.645955 1.416420 7.139912 -10.556315 -26.921189 2.140719 -0.135006 15.951390 -2.038992 -9.752055 -3.519986 -1.496500 -0.000001 -35.403500
-7.436864 17.001660 0.353266 -170.492661 85.411748 -166.664890 -11.892663 5.743747 1.654680 5.234028 9.493245 8.850515 0.682634 1.728592 27.154072 2.191535 5.953930 32.887452 2.676200 0.000000 -53.887800 9.319666 -0.759447 1.105069 7.586981 -11.780356 -27.032771 2.168701 -0.378604 18.139065 -1.849205 -8.857032 -3.539465 -1.329600 0.000000 -34.973100
-7.192946 16.985116 0.372570 -167.977959 85.630929 -164.409768 -12.012099 5.707257 1.631363 5.618155 9.961801 7.910264 0.709126 1.771892 29.423890 2.261318 6.589729 32.382922 2.996600 0.000000 -49.551200 9.287107 -0.862965 0.817371 7.915464 -12.901676 -27.041034 2.187259 -0.590160 20.130426 -1.670328 -7.955910 -3.712930 -1.144300 0.000001 -34.295300
-6.954921 16.967734 0.391989 -165.752604 85.862188 -162.443067 -12.119006 5.647150 1.548082 5.915878 10.534428 6.894757 0.725435 1.836469 31.744601 2.309769 7.447643 31.255587 3.400000 -0.000000 -45.710800 9.260078 -0.954019 0.560930 8.107399 -13.867587 -26.916137 2.196443 -0.768799 21.913948 -1.510920 -7.087682 -4.062642 -0.950000 -0.000000 -33.459700
-6.722262 16.950068 0.411874 -163.966124 86.099247 -160.915481 -12.204038 5.563009 1.408644 6.103321 11.185858 5.822173 0.736420 1.921212 34.078101 2.342743 8.538686 29.538674 3.866200 0.000000 -42.543700 9.247158 -1.030623 0.339628 8.151017 -14.649178 -26.640327 2.196609 -0.916251 23.489598 -1.376214 -6.284451 -4.587749 -0.757200 -0.000000 -32.574001
-6.494141 16.932712 0.432341 -162.718798 86.338391 -159.924601 -12.261626 5.456338 1.219570 6.169193 11.901744 4.697817 0.743533 2.022627 36.392592 2.366047 9.840371 27.259036 4.344500 0.000000 -39.935801 9.254068 -1.092847 0.157593 8.049561 -15.223643 -26.205379 2.187622 -1.034256 24.856125 -1.271037 -5.584854 -5.265755 -0.576500 0.000000 -31.749800
-6.269562 16.916320 0.453334 -162.101088 86.575643 -159.556534 -12.288564 5.329575 0.991014 6.104581 12.665202 3.525060 0.745603 2.134549 38.649422 2.387678 11.318260 24.464291 4.772400 -0.000000 -37.692800 9.284109 -1.142499 0.016785 7.817562 -15.585853 -25.614515 2.169324 -1.125306 26.014176 -1.198068 -5.021199 -6.057695 -0.414700 0.000000 -31.087100
-6.047421 16.901580 0.474574 -162.177673 86.805766 -159.869991 -12.284887 5.185537 0.735577 5.905504 13.458627 2.303331 0.739268 2.249138 40.809465 2.417517 12.928583 21.221914 5.081800 0.000000 -35.660500 9.337064 -1.183257 -0.082736 7.479557 -15.746533 -24.879277 2.141722 -1.192073 26.963953 -1.158248 -4.618207 -6.914872 -0.274500 -0.000000 -30.660500
-5.826682 16.889140 0.495600 -162.985540 87.021548 -160.896009 -12.253283 5.026965 0.466624 5.573240 14.263982 1.029883 0.719901 2.358278 42.837883 2.465771 14.618579 17.612034 5.205100 0.000000 -33.581800 9.409665 -1.220057 -0.143386 7.065882 -15.733120 -24.018071 2.105424 -1.237465 27.706288 -1.150547 -4.388674 -7.785539 -0.154500 0.000001 -30.511500
-5.606428 16.879687 0.515819 -164.500804 87.214351 -162.604422 -12.199564 4.856412 0.197665 5.113940 15.061727 -0.300918 0.683013 2.454700 44.706023 2.542100 16.334180 13.736359 5.087900 0.000000 -31.281000 9.495286 -1.258336 -0.169519 6.610316 -15.582668 -23.051103 2.061753 -1.263756 28.238359 -1.172469 -4.334564 -8.619310 -0.051200 0.000000 -30.653000
-5.386022 16.873793 0.534589 -166.664872 87.374901 -164.932566 -12.130150 4.676387 -0.059436 4.536149 15.832231 -1.694994 0.625344 2.533397 46.396396 2.652471 18.019371 9.700197 4.694400 -0.000000 -28.546600 9.586760 -1.302837 -0.168467 6.142140 -15.345766 -21.998805 2.012951 -1.273185 28.559033 -1.219393 -4.441832 -9.372955 0.039000 0.000001 -31.067400
-5.165115 16.871858 0.551327 -169.344206 87.495499 -167.744508 -12.052191 4.489747 -0.294822 3.850369 16.555999 -3.157654 0.545893 2.592159 47.899805 2.798107 19.622423 5.621541 4.018100 0.000000 -25.299501 9.676500 -1.356626 -0.149538 5.684815 -15.076714 -20.878337 1.961870 -1.267182 28.666297 -1.285246 -4.684304 -10.012709 0.118000 -0.000000 -31.720800
-4.943676 16.874143 0.565473 -172.320760 87.572225 -170.821650 -11.972311 4.300084 -0.501486 3.069129 17.215882 -4.692764 0.446084 2.632051 49.215474 2.974269 21.097080 1.621564 3.085900 -0.000000 -21.590299 9.757809 -1.420382 -0.123057 5.254543 -14.826410 -19.701282 1.911416 -1.246149 28.557210 -1.363116 -5.027867 -10.515153 0.185800 0.000000 -32.571900
-4.721923 16.880648 0.576642 -175.321871 87.604708 -173.893505 -11.894756 4.111568 -0.675871 2.204998 17.798294 -6.299809 0.329319 2.656838 50.347603 3.170431 22.401896 -2.187097 1.955500 0.000000 -17.579800 9.826639 -1.492333 -0.099901 4.858626 -14.639950 -18.473264 1.864253 -1.209986 28.231059 -1.445542 -5.432989 -10.867935 0.240400 0.000000 -33.578500
-4.500276 16.891149 0.584584 -178.049425 87.595554 -176.665123 -11.821174 3.928389 -0.817674 1.271902 18.294106 -7.974096 0.200373 2.671838 51.302992 3.372045 23.500232 -5.703777 0.709500 0.000000 -13.544500 9.881511 -1.569106 -0.089414 4.498888 -14.547270 -17.194268 1.822406 -1.158193 27.688381 -1.525661 -5.861780 -11.068842 0.278700 -0.000000 -34.702600
-4.279275 16.905180 0.589171 179.723141 87.547548 -178.915213 -11.750405 3.753395 -0.929901 0.281967 18.698646 -9.705202 0.064093 2.682161 52.088783 3.562901 24.358191 -8.859561 -0.560700 0.000001 -9.728300 9.923694 -1.647064 -0.099058 4.170649 -14.564740 -15.860153 1.787154 -1.090961 26.933887 -1.597735 -6.281778 -11.123529 0.298099 -0.000000 -35.912100
-4.059481 16.922078 0.590540 178.095665 87.461812 179.450621 -11.680152 3.587506 -1.017503 -0.755422 19.010074 -11.477530 -0.074590 2.691243 52.708211 3.728090 24.950111 -11.601094 -1.761000 -0.000000 -6.455500 9.955705 -1.723443 -0.133184 3.865401 -14.690971 -14.465040 1.758773 -1.009537 25.977359 -1.657925 -6.670376 -11.042861 0.297001 0.000000 -37.183400
-3.841347 16.940987 0.588883 177.017497 87.338203 178.376704 -11.607334 3.430019 -1.087039 -1.836065 19.231279 -13.272826 -0.214693 2.700495 53.164856 3.856555 25.253480 -13.955245 -2.835800 0.000001 -3.545800 9.980672 -1.796613 -0.192700 3.570537 -14.910867 -13.006003 1.736406 -0.916466 24.837953 -1.704219 -7.014396 -10.840894 0.275000 0.000000 -38.499800
